<svg width="12" height="12" viewBox="0 0 12 12" fill="none" xmlns="http://www.w3.org/2000/svg">
<path class="up" d="M10.2929 0.292893C10.6834 -0.0976311 11.3166 -0.0976311 11.7071 0.292893C12.0976 0.683417 12.0976 1.31658 11.7071 1.70711L6.70711 6.70711C6.48744 6.92678 6.19099 7.02288 5.90415 6.99542C5.85038 6.99028 5.79695 6.98079 5.74443 6.96696C5.579 6.92341 5.42255 6.83679 5.29286 6.7071L0.292893 1.70714C-0.097631 1.31661 -0.0976311 0.683448 0.292893 0.292924C0.683417 -0.0976006 1.31658 -0.0976006 1.70711 0.292923L5.99999 4.5858L10.2929 0.292893Z"/>
<path class="down" d="M1.70711 11.7071C1.31658 12.0976 0.683417 12.0976 0.292893 11.7071C-0.0976306 11.3166 -0.0976306 10.6834 0.292893 10.2929L5.29289 5.29289C5.51256 5.07322 5.80901 4.97712 6.09585 5.00458C6.14962 5.00972 6.20305 5.01921 6.25557 5.03304C6.421 5.07659 6.57745 5.16321 6.70714 5.2929L11.7071 10.2929C12.0976 10.6834 12.0976 11.3166 11.7071 11.7071C11.3166 12.0976 10.6834 12.0976 10.2929 11.7071L6.00001 7.4142L1.70711 11.7071Z" />
</svg>
