<svg width="14" height="14" viewBox="0 0 14 14" fill="none" xmlns="http://www.w3.org/2000/svg">
<path fill-rule="evenodd" clip-rule="evenodd" d="M7 14C10.866 14 14 10.866 14 7C14 3.13401 10.866 0 7 0C3.13401 0 0 3.13401 0 7C0 10.866 3.13401 14 7 14ZM7 13C10.3137 13 13 10.3137 13 7C13 3.68629 10.3137 1 7 1C3.68629 1 1 3.68629 1 7C1 10.3137 3.68629 13 7 13Z" />
<path fill-rule="evenodd" clip-rule="evenodd" d="M7 10C8.65685 10 10 8.65685 10 7C10 5.34315 8.65685 4 7 4C5.34315 4 4 5.34315 4 7C4 8.65685 5.34315 10 7 10ZM7 9C8.10457 9 9 8.10457 9 7C9 5.89543 8.10457 5 7 5C5.89543 5 5 5.89543 5 7C5 8.10457 5.89543 9 7 9Z" />
<path d="M5.5 5.5L3.50012 1C2.49668 1.61426 1.46805 2.55709 1.00012 3.68947L5.5 5.5Z" />
<path d="M8.5 8.5L10.5 13C11.5034 12.3857 12.5321 11.4429 13 10.3105L8.5 8.5Z" />
<circle cx="7" cy="7" r="1" />
</svg>
