<svg width="14" height="14" viewBox="0 0 14 14" fill="none" xmlns="http://www.w3.org/2000/svg">
<path fill-rule="evenodd" clip-rule="evenodd" d="M7 14C10.866 14 14 10.866 14 7C14 3.13401 10.866 0 7 0C3.13401 0 0 3.13401 0 7C0 10.866 3.13401 14 7 14ZM7 13C10.3137 13 13 10.3137 13 7C13 3.68629 10.3137 1 7 1C3.68629 1 1 3.68629 1 7C1 10.3137 3.68629 13 7 13Z" />
<path d="M4.4081 8.39625C4.6748 7.94367 5.29695 7.86458 5.66841 8.23604V8.23604C6.02283 8.59045 5.96978 9.1793 5.55772 9.46467L4.40212 10.265C4.2056 10.4011 3.93986 10.3771 3.77083 10.2081V10.2081C3.61139 10.0486 3.57997 9.80155 3.69445 9.60728L4.4081 8.39625Z" />
<path d="M10.5355 3.46446C10.145 3.07394 9.5118 3.07394 9.12127 3.46446L5.36328 7.22246C5.31027 7.27547 5.26445 7.33295 5.22583 7.39369C5.56563 7.36683 5.91762 7.48063 6.18447 7.74748C6.4801 8.04311 6.58912 8.44611 6.52371 8.82121C6.61518 8.77468 6.70099 8.71317 6.77749 8.63667L10.5355 4.87868C10.926 4.48815 10.926 3.85499 10.5355 3.46446Z" />
</svg>
