<svg width="14" height="14" viewBox="0 0 14 14" fill="none" xmlns="http://www.w3.org/2000/svg">
<mask id="path-1-inside-1" fill="white">
<path fill-rule="evenodd" clip-rule="evenodd" d="M7 14C10.866 14 14 10.866 14 7C14 3.13401 10.866 0 7 0C3.13401 0 0 3.13401 0 7C0 10.866 3.13401 14 7 14ZM7 13C10.3137 13 13 10.3137 13 7C13 3.68629 10.3137 1 7 1C3.68629 1 1 3.68629 1 7C1 10.3137 3.68629 13 7 13Z"/>
<path fill-rule="evenodd" clip-rule="evenodd" d="M5.56245 3.75325L10.4277 6.17925C11.1661 6.54741 11.1661 7.60091 10.4277 7.96908L5.56244 10.3951C4.89761 10.7266 4.11621 10.2431 4.11621 9.50015L4.11621 4.64817C4.11621 3.90526 4.89761 3.42174 5.56245 3.75325ZM5.50001 5L9.22257 7.07416L5.5 9.0914L5.50001 5Z"/>
</mask>
<path fill-rule="evenodd" clip-rule="evenodd" d="M7 14C10.866 14 14 10.866 14 7C14 3.13401 10.866 0 7 0C3.13401 0 0 3.13401 0 7C0 10.866 3.13401 14 7 14ZM7 13C10.3137 13 13 10.3137 13 7C13 3.68629 10.3137 1 7 1C3.68629 1 1 3.68629 1 7C1 10.3137 3.68629 13 7 13Z"/>
<path fill-rule="evenodd" clip-rule="evenodd" d="M5.56245 3.75325L10.4277 6.17925C11.1661 6.54741 11.1661 7.60091 10.4277 7.96908L5.56244 10.3951C4.89761 10.7266 4.11621 10.2431 4.11621 9.50015L4.11621 4.64817C4.11621 3.90526 4.89761 3.42174 5.56245 3.75325ZM5.50001 5L9.22257 7.07416L5.5 9.0914L5.50001 5Z"/>
<path d="M5.56245 3.75325L-1.13107 17.177L-1.13107 17.177L5.56245 3.75325ZM10.4277 6.17925L17.1213 -7.24449L17.1213 -7.2445L10.4277 6.17925ZM10.4277 7.96908L3.73423 -5.45467L3.73423 -5.45467L10.4277 7.96908ZM5.56244 10.3951L-1.13106 -3.02868L-1.13107 -3.02867L5.56244 10.3951ZM4.11621 9.50015L-10.8838 9.50015L-10.8838 9.50016L4.11621 9.50015ZM4.11621 4.64817L-10.8838 4.64817L-10.8838 4.64817L4.11621 4.64817ZM5.50001 5L12.801 -8.10328L-9.49999 -20.529L-9.49999 5L5.50001 5ZM9.22257 7.07416L16.3691 20.2623L40.3687 7.25706L16.5235 -6.02912L9.22257 7.07416ZM5.5 9.0914L-9.5 9.09139L-9.5 34.2806L12.6466 22.2795L5.5 9.0914ZM7 29C19.1503 29 29 19.1503 29 7H-1C-1 2.58172 2.58172 -1 7 -1V29ZM29 7C29 -5.15026 19.1503 -15 7 -15V15C2.58172 15 -1 11.4183 -1 7H29ZM7 -15C-5.15026 -15 -15 -5.15026 -15 7H15C15 11.4183 11.4183 15 7 15V-15ZM-15 7C-15 19.1503 -5.15026 29 7 29V-1C11.4183 -1 15 2.58172 15 7H-15ZM7 28C18.598 28 28 18.598 28 7H-2C-2 2.02944 2.02944 -2 7 -2V28ZM28 7C28 -4.59798 18.598 -14 7 -14V16C2.02944 16 -2 11.9706 -2 7H28ZM7 -14C-4.59798 -14 -14 -4.59798 -14 7H16C16 11.9706 11.9706 16 7 16V-14ZM-14 7C-14 18.598 -4.59798 28 7 28V-2C11.9706 -2 16 2.02944 16 7H-14ZM-1.13107 17.177L3.73422 19.603L17.1213 -7.2445L12.256 -9.67049L-1.13107 17.177ZM3.73422 19.603C-6.60277 14.4486 -6.60271 -0.300345 3.73423 -5.45467L17.1212 21.3928C28.9349 15.5022 28.935 -1.3538 17.1213 -7.24449L3.73422 19.603ZM3.73423 -5.45467L-1.13106 -3.02868L12.256 23.8188L17.1212 21.3928L3.73423 -5.45467ZM-1.13107 -3.02867C8.17669 -7.66983 19.1162 -0.900446 19.1162 9.50014L-10.8838 9.50016C-10.8838 21.3866 1.61852 29.123 12.256 23.8188L-1.13107 -3.02867ZM19.1162 9.50015L19.1162 4.64817L-10.8838 4.64817L-10.8838 9.50015L19.1162 9.50015ZM19.1162 4.64817C19.1162 15.0488 8.17665 21.8181 -1.13107 17.177L12.256 -9.67049C1.61857 -14.9746 -10.8838 -7.23829 -10.8838 4.64817L19.1162 4.64817ZM-1.80095 18.1033L1.92161 20.1774L16.5235 -6.02912L12.801 -8.10328L-1.80095 18.1033ZM2.076 -6.11396L-1.64656 -4.09672L12.6466 22.2795L16.3691 20.2623L2.076 -6.11396ZM20.5 9.0914L20.5 5.00001L-9.49999 5L-9.5 9.09139L20.5 9.0914Z" mask="url(#path-1-inside-1)"/>
</svg>
