<svg width="24" height="21" viewBox="0 0 24 21" fill="none" xmlns="http://www.w3.org/2000/svg">
<path d="M10.5 21C14.0196 21 17.1348 19.2683 19.0399 16.6104L16.7063 14.1151C15.4612 16.2479 13.1481 17.681 10.5003 17.681C6.53429 17.681 3.31923 14.466 3.31923 10.5C3.31923 6.53401 6.53429 3.31895 10.5003 3.31895C13.5053 3.31895 16.0792 5.16477 17.1501 7.78447H14.0604L19.0087 13.8793L23.957 7.78447H20.6455C19.4487 3.30175 15.3599 0 10.5 0C4.70101 0 0 4.70101 0 10.5C0 16.299 4.70101 21 10.5 21Z" />
</svg>
