<svg width="14" height="14" viewBox="0 0 14 14" fill="none" xmlns="http://www.w3.org/2000/svg">
<path fill-rule="evenodd" clip-rule="evenodd" d="M7 14C10.866 14 14 10.866 14 7C14 3.13401 10.866 0 7 0C3.13401 0 0 3.13401 0 7C0 10.866 3.13401 14 7 14ZM7 13C10.3137 13 13 10.3137 13 7C13 3.68629 10.3137 1 7 1C3.68629 1 1 3.68629 1 7C1 10.3137 3.68629 13 7 13Z" />
<path d="M7.00713 11C7.8075 11 8.55307 10.7658 9.17879 10.3622L8.01971 9.1774C7.71196 9.32025 7.36887 9.4 7.00713 9.4C5.67928 9.4 4.60285 8.32548 4.60285 7C4.60285 5.67452 5.67928 4.6 7.00713 4.6C8.19845 4.6 9.1874 5.46492 9.37816 6.60002L7.5 6.60001L11 8.97161L11 6.60002H10.9945C10.7934 4.57868 9.08497 3 7.00713 3C4.79405 3 3 4.79086 3 7C3 9.20914 4.79405 11 7.00713 11Z" />
</svg>
