<svg width="16" height="15" viewBox="0 0 16 15" fill="none" xmlns="http://www.w3.org/2000/svg">
<path d="M3.94588 13.911C5.08099 14.602 6.41406 15 7.84009 15C11.9822 15 15.3401 11.6421 15.3401 7.5C15.3401 6.02083 14.9119 4.64167 14.1727 3.47972L12.3501 5.33872C12.6642 5.99287 12.8401 6.72589 12.8401 7.50001C12.8401 10.2614 10.6015 12.5 7.84009 12.5C7.10115 12.5 6.39966 12.3397 5.76848 12.052L3.94588 13.911Z" />
<path d="M1.08124 10.7548C0.606289 9.77036 0.340088 8.66627 0.340088 7.5C0.340088 3.35786 3.69795 0 7.84009 0C8.95357 0 10.0104 0.242652 10.9605 0.67796L9.03366 2.64336C8.65119 2.54968 8.25144 2.50001 7.84009 2.50001C5.07866 2.50001 2.84009 4.73859 2.84009 7.50001C2.84009 7.9459 2.89845 8.37816 3.00797 8.78957L1.08124 10.7548Z" />
</svg>
