<svg width="12" height="12" viewBox="0 0 12 12" fill="none" xmlns="http://www.w3.org/2000/svg">
<path fill-rule="evenodd" clip-rule="evenodd" d="M10.2929 0.292894C10.6834 -0.0976312 11.3166 -0.0976312 11.7071 0.292894C12.0976 0.683417 12.0976 1.31658 11.7071 1.70711L7.4142 6.00002L11.7071 10.2929C12.0976 10.6834 12.0976 11.3166 11.7071 11.7071C11.3165 12.0976 10.6834 12.0976 10.2929 11.7071L5.99998 7.41423L1.70714 11.7071C1.31662 12.0976 0.683451 12.0976 0.292927 11.7071C-0.097598 11.3165 -0.0975981 10.6834 0.292927 10.2929L4.58577 6.00002L0.292893 1.70714C-0.0976311 1.31661 -0.0976311 0.683448 0.292893 0.292924C0.683418 -0.0976007 1.31658 -0.0976007 1.70711 0.292924L5.99998 4.5858L10.2929 0.292894Z" />
</svg>
