<svg width="14" height="14" viewBox="0 0 14 14" fill="none" xmlns="http://www.w3.org/2000/svg">
<path fill-rule="evenodd" clip-rule="evenodd" d="M7 14C10.866 14 14 10.866 14 7C14 3.13401 10.866 0 7 0C3.13401 0 0 3.13401 0 7C0 10.866 3.13401 14 7 14ZM7 13C10.3137 13 13 10.3137 13 7C13 3.68629 10.3137 1 7 1C3.68629 1 1 3.68629 1 7C1 10.3137 3.68629 13 7 13Z" />
<rect x="9.8623" y="3.15936" width="1.4091" height="9.46473" rx="0.704549" transform="rotate(45 9.8623 3.15936)" />
<rect x="11" y="9.85889" width="1.4091" height="9.52271" rx="0.704549" transform="rotate(135 11 9.85889)" />
</svg>
