<svg width="14" height="14" viewBox="0 0 14 14" fill="none" xmlns="http://www.w3.org/2000/svg">
<path fill-rule="evenodd" clip-rule="evenodd" d="M7 14C10.866 14 14 10.866 14 7C14 3.13401 10.866 0 7 0C3.13401 0 0 3.13401 0 7C0 10.866 3.13401 14 7 14ZM7 13C10.3137 13 13 10.3137 13 7C13 3.68629 10.3137 1 7 1C3.68629 1 1 3.68629 1 7C1 10.3137 3.68629 13 7 13Z"/>
<path d="M9.12132 3.46447C9.51184 3.07394 10.145 3.07394 10.5355 3.46447C10.9261 3.85499 10.9261 4.48816 10.5355 4.87868L9.82842 5.58579C9.4379 5.97631 8.80473 5.97631 8.41421 5.58579C8.02369 5.19526 8.02369 4.5621 8.41421 4.17157L9.12132 3.46447Z"/>
<path d="M10.5355 9.12132C10.9261 9.51184 10.9261 10.145 10.5355 10.5355C10.145 10.9261 9.51184 10.9261 9.12132 10.5355L8.41421 9.82843C8.02369 9.4379 8.02369 8.80474 8.41421 8.41421C8.80473 8.02369 9.4379 8.02369 9.82842 8.41421L10.5355 9.12132Z"/>
<path d="M4.17157 8.41421C4.56209 8.02369 5.19526 8.02369 5.58578 8.41421C5.97631 8.80474 5.97631 9.4379 5.58578 9.82843L4.87868 10.5355C4.48815 10.9261 3.85499 10.9261 3.46446 10.5355C3.07394 10.145 3.07394 9.51184 3.46446 9.12132L4.17157 8.41421Z"/>
<path d="M5.58578 4.17157C5.97631 4.5621 5.97631 5.19526 5.58578 5.58579C5.19526 5.97631 4.56209 5.97631 4.17157 5.58579L3.46446 4.87868C3.07394 4.48816 3.07394 3.85499 3.46446 3.46447C3.85499 3.07394 4.48815 3.07394 4.87868 3.46447L5.58578 4.17157Z"/>
</svg>
