<svg width="487" height="315" viewBox="0 0 487 315" fill="none" xmlns="http://www.w3.org/2000/svg">
<path d="M11 22V315L134 217L185 254.5L250 220L301.5 255.5L366.5 218L487 315V132.5L425.5 168.5V23.5L439.5 0H363.5V9.5L357.5 0H260L251 14L241 0H144L135.5 14L125 0H0L11 22Z" fill="black"/>
<path d="M315.896 149H307.632V113.074L365.5 91.3018V206.462L302.029 242.5L252.5 207.5V25L265 7H355L365.5 23.5V66L357.5 77L315.896 92.5V62.5H304.01H292.123V170.5L315.896 190V149Z" fill="#990E01"/>
<path d="M199.693 166L136.5 131V206.198L185.423 242.5L250.5 207.5V112.5L185 77V62.5H203.693V66L250.5 92.5V25L237.5 7H148L136.5 25V42.5V116.5L199.693 149V166Z" fill="#990E01"/>
<path d="M367.678 8V206.462L480 297.5V146L431.329 176V204.576L410.796 193.5V36.5938L424.5 8H367.678Z" fill="#990E01"/>
<path d="M85.7593 69.0414L134.5 95V25L121 8H14.5L20.5741 15.5V124.857L85.7593 159.241V171L69.5 185.5L69 170.5L20.5 146.5L19 296L134.5 206.53V117.718L61.3148 82.5V64.9512H85.7593V69.0414Z" fill="#990E01"/>
<path d="M319.896 145.241H311.632V115.574L361.5 96.5V193.198L306.028 225.5L256.5 193.198V25L267 11.5L352.5 12.1482L361.5 25V64L319.896 79.5V51.1296H296.123V153.5L319.896 173V145.241Z" fill="url(#paint0_linear)"/>
<path d="M203.692 173L140.5 138V193.198L189.423 225.5L246.5 193.198V114L181.269 79.5V51.5H207.692V57L246.5 78.5V52.25V26L236.308 11.5H150.692L140.5 25.5V99.5L203.692 132V173Z" fill="url(#paint1_linear)"/>
<path d="M371.677 11.5V193L476 281V152.56L435.328 177.237V194.576L414.796 176.5V19.5938L419.5 11.5H371.677Z" fill="url(#paint2_linear)"/>
<path d="M89.7593 60.0414L130.5 81.5V25.6579L119.904 11.5H20.5L24.5741 19.5903V111.857L89.7593 146.241V173.237L65.3148 193.462V173L23.5741 151.808V280.5L130.5 193.53V118.718L65.3148 86.2782V51.9512H89.7593V60.0414Z" fill="url(#paint3_linear)"/>
<path d="M319.896 145.241H311.632V115.574L361.5 96.5V193.198L306.028 225.5L256.5 193.198V25L267 11.5L352.5 12.1482L361.5 25V64L319.896 79.5V51.1296H296.123V153.5L319.896 173V145.241Z" stroke="url(#paint4_linear)" stroke-width="7"/>
<path d="M203.692 173L140.5 138V193.198L189.423 225.5L246.5 193.198V114L181.269 79.5V51.5H207.692V57L246.5 78.5V52.25V26L236.308 11.5H150.692L140.5 25.5V99.5L203.692 132V173Z" stroke="url(#paint5_linear)" stroke-width="7"/>
<path d="M371.677 11.5V193L476 281V152.56L435.328 177.237V194.576L414.796 176.5V19.5938L419.5 11.5H371.677Z" stroke="url(#paint6_linear)" stroke-width="7"/>
<path d="M89.7593 60.0414L130.5 81.5V25.6579L119.904 11.5H20.5L24.5741 19.5903V111.857L89.7593 146.241V173.237L65.3148 193.462V173L23.5741 151.808V280.5L130.5 193.53V118.718L65.3148 86.2782V51.9512H89.7593V60.0414Z" stroke="url(#paint7_linear)" stroke-width="7"/>
<defs>
<linearGradient id="paint0_linear" x1="248.25" y1="11.5" x2="248.25" y2="281" gradientUnits="userSpaceOnUse">
<stop offset="0.453125" stop-color="#FFA800"/>
<stop offset="1" stop-color="#E30000"/>
</linearGradient>
<linearGradient id="paint1_linear" x1="248.25" y1="11.5" x2="248.25" y2="281" gradientUnits="userSpaceOnUse">
<stop offset="0.453125" stop-color="#FFA800"/>
<stop offset="1" stop-color="#E30000"/>
</linearGradient>
<linearGradient id="paint2_linear" x1="248.25" y1="11.5" x2="248.25" y2="281" gradientUnits="userSpaceOnUse">
<stop offset="0.453125" stop-color="#FFA800"/>
<stop offset="1" stop-color="#E30000"/>
</linearGradient>
<linearGradient id="paint3_linear" x1="248.25" y1="11.5" x2="248.25" y2="281" gradientUnits="userSpaceOnUse">
<stop offset="0.453125" stop-color="#FFA800"/>
<stop offset="1" stop-color="#E30000"/>
</linearGradient>
<linearGradient id="paint4_linear" x1="248.25" y1="11.5" x2="248.25" y2="281" gradientUnits="userSpaceOnUse">
<stop stop-color="#8E2A00"/>
<stop offset="1" stop-color="#9D0000"/>
</linearGradient>
<linearGradient id="paint5_linear" x1="248.25" y1="11.5" x2="248.25" y2="281" gradientUnits="userSpaceOnUse">
<stop stop-color="#8E2A00"/>
<stop offset="1" stop-color="#9D0000"/>
</linearGradient>
<linearGradient id="paint6_linear" x1="248.25" y1="11.5" x2="248.25" y2="281" gradientUnits="userSpaceOnUse">
<stop stop-color="#8E2A00"/>
<stop offset="1" stop-color="#9D0000"/>
</linearGradient>
<linearGradient id="paint7_linear" x1="248.25" y1="11.5" x2="248.25" y2="281" gradientUnits="userSpaceOnUse">
<stop stop-color="#8E2A00"/>
<stop offset="1" stop-color="#9D0000"/>
</linearGradient>
</defs>
</svg>
