<svg width="302" height="270" viewBox="0 0 302 270" fill="none" xmlns="http://www.w3.org/2000/svg">
<path fill-rule="evenodd" clip-rule="evenodd" d="M153 263C223.692 263 281 205.692 281 135C281 64.3076 223.692 7 153 7C82.3076 7 25 64.3076 25 135C25 205.692 82.3076 263 153 263ZM251.226 223.182C272.224 199.807 285 168.895 285 135C285 102.659 273.369 73.0345 254.062 50.0811L254.699 49.0547L272.699 20.0547L276.615 13.7455L270.06 17.2345L239.06 33.7345L238.213 34.1856C215.219 14.7304 185.479 3 153 3C120.521 3 90.7814 14.7304 67.7873 34.1856L66.9397 33.7345L35.9397 17.2345L29.3847 13.7455L33.3007 20.0547L51.3007 49.0547L51.9378 50.0811C32.6308 73.0345 21 102.659 21 135C21 168.698 33.6272 199.446 54.408 222.772L54.3007 222.945L36.3007 251.945L32.3847 258.254L38.9397 254.765L69.9397 238.265L70.439 238C93.0468 256.145 121.756 267 153 267C183.899 267 212.318 256.383 234.808 238.599L236.06 239.265L267.06 255.765L273.615 259.254L269.699 252.945L251.699 223.945L251.226 223.182ZM40.6153 24.2545L53.3957 44.845L62.6259 35.9698L40.6153 24.2545ZM252.604 44.845L265.385 24.2545L243.374 35.9698L252.604 44.845ZM43.6153 247.746L56.3957 227.155L65.6259 236.03L43.6153 247.746ZM249.604 228.155L262.385 248.746L240.374 237.03L249.604 228.155Z" fill="#C4C4C4"/>
<path d="M251.226 223.182L249.366 221.511L248.112 222.907L249.101 224.5L251.226 223.182ZM254.062 50.0811L251.938 48.7627L250.982 50.303L252.149 51.6903L254.062 50.0811ZM254.699 49.0547L252.575 47.7363V47.7363L254.699 49.0547ZM272.699 20.0547L270.575 18.7363L272.699 20.0547ZM276.615 13.7455L278.739 15.0639L283.634 7.17747L275.441 11.5387L276.615 13.7455ZM270.06 17.2345L271.235 19.4414L270.06 17.2345ZM239.06 33.7345L237.886 31.5276L239.06 33.7345ZM238.213 34.1856L236.598 36.0942L237.892 37.1887L239.387 36.3925L238.213 34.1856ZM67.7873 34.1856L66.6127 36.3925L68.1085 37.1887L69.4021 36.0942L67.7873 34.1856ZM66.9397 33.7345L65.7651 35.9414V35.9414L66.9397 33.7345ZM35.9397 17.2345L34.7651 19.4414L35.9397 17.2345ZM29.3847 13.7455L30.5593 11.5387L22.3655 7.17747L27.2606 15.0639L29.3847 13.7455ZM33.3007 20.0547L31.1766 21.3731L33.3007 20.0547ZM51.3007 49.0547L49.1766 50.3731L51.3007 49.0547ZM51.9378 50.0811L53.851 51.6903L55.0179 50.303L54.0619 48.7627L51.9378 50.0811ZM54.408 222.772L56.5321 224.091L57.5171 222.504L56.2747 221.109L54.408 222.772ZM54.3007 222.945L52.1766 221.627L52.1766 221.627L54.3007 222.945ZM36.3007 251.945L34.1766 250.627H34.1766L36.3007 251.945ZM32.3847 258.254L30.2606 256.936L25.3655 264.823L33.5593 260.461L32.3847 258.254ZM38.9397 254.765L37.7651 252.559L38.9397 254.765ZM69.9397 238.265L71.1143 240.472H71.1143L69.9397 238.265ZM70.439 238L72.0039 236.05L70.7189 235.019L69.2644 235.793L70.439 238ZM234.808 238.599L235.983 236.392L234.54 235.624L233.258 236.638L234.808 238.599ZM236.06 239.265L237.235 237.059L237.235 237.059L236.06 239.265ZM267.06 255.765L268.235 253.559L267.06 255.765ZM273.615 259.254L272.441 261.461L280.634 265.823L275.739 257.936L273.615 259.254ZM269.699 252.945L271.823 251.627L269.699 252.945ZM251.699 223.945L249.575 225.264L249.575 225.264L251.699 223.945ZM53.3957 44.845L51.2716 46.1634L52.9011 48.7888L55.1284 46.6471L53.3957 44.845ZM40.6153 24.2545L41.7899 22.0476L33.5962 17.6864L38.4912 25.5729L40.6153 24.2545ZM62.6259 35.9698L64.3587 37.7718L66.8435 35.3826L63.8005 33.7629L62.6259 35.9698ZM265.385 24.2545L267.509 25.5729L272.404 17.6864L264.21 22.0476L265.385 24.2545ZM252.604 44.845L250.872 46.6471L253.099 48.7888L254.728 46.1634L252.604 44.845ZM243.374 35.9698L242.199 33.7629L239.156 35.3826L241.641 37.7718L243.374 35.9698ZM56.3957 227.155L58.1284 225.353L55.9011 223.211L54.2716 225.837L56.3957 227.155ZM43.6153 247.746L41.4912 246.427L36.5962 254.314L44.7899 249.952L43.6153 247.746ZM65.6259 236.03L66.8005 238.237L69.8435 236.617L67.3587 234.228L65.6259 236.03ZM262.385 248.746L261.21 250.952L269.404 255.314L264.509 247.427L262.385 248.746ZM249.604 228.155L251.728 226.837L250.099 224.211L247.872 226.353L249.604 228.155ZM240.374 237.03L238.641 235.228L236.156 237.617L239.199 239.237L240.374 237.03ZM278.5 135C278.5 204.312 222.312 260.5 153 260.5V265.5C225.073 265.5 283.5 207.073 283.5 135H278.5ZM153 9.5C222.312 9.5 278.5 65.6883 278.5 135H283.5C283.5 62.9268 225.073 4.5 153 4.5V9.5ZM27.5 135C27.5 65.6883 83.6883 9.5 153 9.5V4.5C80.9268 4.5 22.5 62.9268 22.5 135H27.5ZM153 260.5C83.6883 260.5 27.5 204.312 27.5 135H22.5C22.5 207.073 80.9268 265.5 153 265.5V260.5ZM282.5 135C282.5 168.255 269.968 198.577 249.366 221.511L253.085 224.853C274.48 201.037 287.5 169.536 287.5 135H282.5ZM252.149 51.6903C271.091 74.21 282.5 103.269 282.5 135H287.5C287.5 102.049 275.647 71.8589 255.975 48.4718L252.149 51.6903ZM252.575 47.7363L251.938 48.7627L256.186 51.3995L256.823 50.3731L252.575 47.7363ZM270.575 18.7363L252.575 47.7363L256.823 50.3731L274.823 21.3731L270.575 18.7363ZM274.491 12.4271L270.575 18.7363L274.823 21.3731L278.739 15.0639L274.491 12.4271ZM271.235 19.4414L277.79 15.9524L275.441 11.5387L268.886 15.0276L271.235 19.4414ZM240.235 35.9414L271.235 19.4414L268.886 15.0276L237.886 31.5276L240.235 35.9414ZM239.387 36.3925L240.235 35.9414L237.886 31.5276L237.038 31.9788L239.387 36.3925ZM153 5.5C184.866 5.5 214.038 17.0065 236.598 36.0942L239.828 32.2771C216.399 12.4543 186.092 0.5 153 0.5V5.5ZM69.4021 36.0942C91.9618 17.0065 121.134 5.5 153 5.5V0.5C119.908 0.5 89.6011 12.4543 66.1725 32.2771L69.4021 36.0942ZM65.7651 35.9414L66.6127 36.3925L68.9619 31.9788L68.1143 31.5276L65.7651 35.9414ZM34.7651 19.4414L65.7651 35.9414L68.1143 31.5276L37.1143 15.0276L34.7651 19.4414ZM28.2101 15.9524L34.7651 19.4414L37.1143 15.0276L30.5593 11.5387L28.2101 15.9524ZM35.4248 18.7363L31.5088 12.4271L27.2606 15.0639L31.1766 21.3731L35.4248 18.7363ZM53.4248 47.7363L35.4248 18.7363L31.1766 21.3731L49.1766 50.3731L53.4248 47.7363ZM54.0619 48.7627L53.4248 47.7363L49.1766 50.3731L49.8137 51.3995L54.0619 48.7627ZM23.5 135C23.5 103.269 34.9088 74.21 53.851 51.6903L50.0246 48.4718C30.3528 71.8589 18.5 102.049 18.5 135H23.5ZM56.2747 221.109C35.886 198.224 23.5 168.061 23.5 135H18.5C18.5 169.334 31.3684 200.669 52.5414 224.435L56.2747 221.109ZM56.4248 224.264L56.5321 224.091L52.284 221.454L52.1766 221.627L56.4248 224.264ZM38.4248 253.264L56.4248 224.264L52.1766 221.627L34.1766 250.627L38.4248 253.264ZM34.5088 259.573L38.4248 253.264L34.1766 250.627L30.2606 256.936L34.5088 259.573ZM37.7651 252.559L31.2101 256.048L33.5593 260.461L40.1143 256.972L37.7651 252.559ZM68.7651 236.059L37.7651 252.559L40.1143 256.972L71.1143 240.472L68.7651 236.059ZM69.2644 235.793L68.7651 236.059L71.1143 240.472L71.6137 240.207L69.2644 235.793ZM153 264.5C122.345 264.5 94.1839 253.852 72.0039 236.05L68.8742 239.949C91.9096 258.438 121.166 269.5 153 269.5V264.5ZM233.258 236.638C211.193 254.086 183.316 264.5 153 264.5V269.5C184.481 269.5 213.443 258.681 236.359 240.56L233.258 236.638ZM237.235 237.059L235.983 236.392L233.634 240.806L234.886 241.472L237.235 237.059ZM268.235 253.559L237.235 237.059L234.886 241.472L265.886 257.972L268.235 253.559ZM274.79 257.048L268.235 253.559L265.886 257.972L272.441 261.461L274.79 257.048ZM267.575 254.264L271.491 260.573L275.739 257.936L271.823 251.627L267.575 254.264ZM249.575 225.264L267.575 254.264L271.823 251.627L253.823 222.627L249.575 225.264ZM249.101 224.5L249.575 225.264L253.823 222.627L253.35 221.864L249.101 224.5ZM55.5198 43.5266L42.7394 22.9361L38.4912 25.5729L51.2716 46.1634L55.5198 43.5266ZM60.8931 34.1677L51.6629 43.0429L55.1284 46.6471L64.3587 37.7718L60.8931 34.1677ZM39.4407 26.4613L61.4513 38.1766L63.8005 33.7629L41.7899 22.0476L39.4407 26.4613ZM263.261 22.9361L250.48 43.5266L254.728 46.1634L267.509 25.5729L263.261 22.9361ZM244.549 38.1766L266.559 26.4613L264.21 22.0476L242.199 33.7629L244.549 38.1766ZM254.337 43.0429L245.107 34.1677L241.641 37.7718L250.872 46.6471L254.337 43.0429ZM54.2716 225.837L41.4912 246.427L45.7394 249.064L58.5198 228.473L54.2716 225.837ZM67.3587 234.228L58.1284 225.353L54.6629 228.957L63.8931 237.832L67.3587 234.228ZM44.7899 249.952L66.8005 238.237L64.4513 233.823L42.4407 245.539L44.7899 249.952ZM264.509 247.427L251.728 226.837L247.48 229.473L260.261 250.064L264.509 247.427ZM239.199 239.237L261.21 250.952L263.559 246.539L241.549 234.823L239.199 239.237ZM247.872 226.353L238.641 235.228L242.107 238.832L251.337 229.957L247.872 226.353Z" fill="#EB2824"/>
<circle cx="153" cy="134" r="111" stroke="#5F100F" stroke-width="10"/>
<path d="M99.6647 229.165C48.4874 199.617 30.9528 134.177 60.5 83" stroke="#5F100F" stroke-width="10"/>
<path d="M202.5 45C253.677 74.5473 271.212 139.987 241.665 191.165" stroke="#5F100F" stroke-width="10"/>
<path d="M198.5 52C249.677 81.5473 267.212 146.987 237.665 198.165" stroke="#5F100F" stroke-width="10"/>
<path d="M194.5 59C245.677 88.5473 263.212 153.987 233.665 205.165" stroke="#5F100F" stroke-width="10"/>
<path fill-rule="evenodd" clip-rule="evenodd" d="M150.816 237.277L213.245 49.7951L150.291 92.6309L88.3876 50.3624L150.816 237.277ZM151.347 206.928L107.515 74.4748L151.088 105.394L194.921 74.4748L151.347 206.928Z" fill="#FFA800" stroke="black" stroke-width="0.380602"/>
<path fill-rule="evenodd" clip-rule="evenodd" d="M252 163.054L159.855 99.4382L140.728 99.4382L51.9233 162.242L252 163.054ZM218.033 152.471L82.5498 152.471L151.347 104.544L218.033 152.471Z" fill="#FFA800" stroke="black" stroke-width="0.380602"/>
</svg>
